<?xml version="1.0" encoding="UTF-8" standalone="no"?>
<svg
   version="1.1"
   viewBox="0 0 560 560"
   xmlns="http://www.w3.org/2000/svg">
  <g transform="translate(-70,0)">
    <path
   id="path49"
   d="M 349.88672,0.30615234 C 335.51126,0.87792506 321.24396,4.175306 307.875,10.16748 c -26.73388,11.983952 -47.8156,33.820441 -58.85156,60.965333 -8.16583,23.303519 -0.0924,24.834939 -11.30278,24.541534 -9.14247,0.470949 -25.36263,0.01207 -33.7191,1.010857 -8.33337,0.996022 -9.01964,-0.46396 -13.46002,3.111224 -1.5416,3.186802 -1.57176,0.721022 -3.13263,12.329022 l 0.71804,27.34672 v 18.02197 c 0,4.6406 1.84429,9.0938 5.12549,12.375 3.2812,3.2812 7.73444,5.12549 12.375,5.12549 h 100.62012 v 34.99951 h -74.37451 c -4.6406,0 -9.09384,1.84429 -12.375,5.12549 -3.2812,3.2812 -5.12549,7.7344 -5.12549,12.375 h 0.004 v 8.75098 h -13.125 v -43.75049 c 0,-4.6406 -1.84429,-9.09384 -5.12549,-12.375 -3.28116,-3.2812 -7.7344,-5.12549 -12.375,-5.12549 h -20.82275 v 0.21387 c -5.48733,-14.03817 -17.22855,-24.69524 -31.73437,-28.79151 -14.50793,-4.10156 -30.09903,-1.16846 -42.125981,7.9292 -12.022952,9.09376 -19.089843,23.30095 -19.089843,38.37891 0,15.07792 7.066291,29.28491 19.089843,38.3789 12.026951,9.09766 27.618051,12.03196 42.125981,7.93067 14.51195,-4.0977 26.25773,-14.76216 31.7417,-28.80908 v -0.22998 h 3.3164 v 43.75048 c 0,4.6406 1.84429,9.09384 5.12549,12.375 3.2812,3.2812 7.7344,5.12549 12.375,5.12549 h 30.62402 v 16.97608 l -0.001,35.52246 v 8.75097 H 183.75 c -4.6406,0 -9.0938,1.84283 -12.375,5.12403 -3.2812,3.28116 -5.12549,7.7344 -5.12549,12.375 v 43.75049 h -3.32373 c -5.48436,-14.04696 -17.22974,-24.71109 -31.7417,-28.80909 -14.50792,-4.10156 -30.09902,-1.16846 -42.125975,7.9292 -12.022952,9.09376 -19.089843,23.30095 -19.089843,38.37891 0,15.07792 7.066291,29.28491 19.089843,38.37891 12.026955,9.09766 27.618055,12.03196 42.125975,7.93066 14.51196,-4.0977 26.25774,-14.76216 31.7417,-28.80908 H 183.75 c 4.6406,0 9.0938,-1.84429 12.375,-5.12549 3.2812,-3.2812 5.12549,-7.73444 5.12549,-12.375 v -43.75049 h 13.125 v 35.00098 c 0,4.64056 1.84282,9.0938 5.12402,12.375 3.2812,3.28116 7.73444,5.12402 12.375,5.12402 h 74.37598 v 8.75098 H 205.63037 c -4.64056,0 -9.0938,1.84282 -12.375,5.12402 -3.2812,3.2812 -5.12549,7.73444 -5.12549,12.375 v 20.82422 c -14.04692,5.48436 -24.71108,17.23124 -28.80908,31.74316 -4.1016,14.50796 -1.16846,30.09756 7.9292,42.12452 9.09376,12.02292 23.30245,19.08984 38.38037,19.08984 15.07796,0 29.28495,-7.06632 38.37891,-19.08984 9.09766,-12.02696 12.03046,-27.61656 7.9292,-42.12452 -4.0977,-14.51192 -14.76213,-26.2592 -28.80909,-31.74316 v -3.32373 h 100.62012 c 4.6406,0 9.0938,-1.84429 12.375,-5.12549 3.2812,-3.2812 5.12549,-7.7344 5.12549,-12.375 v -26.25 h 17.49902 v 26.25 c 0,4.6406 1.84429,9.0938 5.12549,12.375 3.2812,3.2812 7.73444,5.12549 12.375,5.12549 h 100.62012 v 3.32373 c -14.04696,5.48436 -24.71112,17.23124 -28.80908,31.74316 -4.1016,14.50796 -1.16846,30.09756 7.9292,42.12452 9.09376,12.02292 23.30098,19.08984 38.3789,19.08984 15.07796,0 29.28495,-7.06632 38.37891,-19.08984 9.09766,-12.02696 12.03196,-27.61656 7.93066,-42.12452 -4.09766,-14.51192 -14.76212,-26.2592 -28.80908,-31.74316 v -20.82422 c 0,-4.64056 -1.84429,-9.0938 -5.12549,-12.375 -3.28116,-3.2812 -7.7344,-5.12402 -12.375,-5.12402 H 393.74854 v -8.75098 h 74.37597 c 4.6406,0 9.0938,-1.84286 12.375,-5.12402 3.2812,-3.2812 5.12403,-7.73444 5.12403,-12.375 v -35.00098 h 13.125 v 43.75049 c 0,4.64056 1.84432,9.0938 5.12548,12.375 3.2812,3.2812 7.73444,5.12549 12.375,5.12549 h 20.82422 c 5.4844,14.04692 17.22978,24.71108 31.7417,28.80908 14.50796,4.1016 30.09759,1.167 42.12451,-7.93066 12.02296,-9.0938 19.08985,-23.30099 19.08985,-38.37891 0,-15.07796 -7.06629,-29.28495 -19.08985,-38.37891 -12.02692,-9.09766 -27.61655,-12.03046 -42.12451,-7.9292 -14.51192,4.0977 -26.2577,14.76213 -31.7417,28.80909 h -3.32519 v -43.75049 c 0,-4.6406 -1.84283,-9.09384 -5.12403,-12.375 -3.28116,-3.2812 -7.7344,-5.12403 -12.375,-5.12403 h -30.62548 l 0.003,-61.25244 h 30.62549 c 4.6406,0 9.09384,-1.84429 12.375,-5.12549 3.2812,-3.28116 5.12403,-7.7344 5.12403,-12.375 v -43.75048 h 2.48877 l 0.006,0.0586 c 5.48436,14.04696 17.22977,24.71112 31.74169,28.80908 14.50796,4.1016 30.09756,1.167 42.12452,-7.93066 12.02292,-9.09376 19.08984,-23.30095 19.08984,-38.37891 0,-15.07792 -7.06632,-29.28494 -19.08984,-38.3789 -12.02696,-9.0977 -27.61656,-12.0305 -42.12452,-7.9292 -14.49186,4.092 -26.22313,14.73375 -31.71679,28.75195 h -20.02295 c -4.6406,0 -9.0938,1.84429 -12.375,5.12549 -3.2812,3.28116 -5.12549,7.7344 -5.12549,12.375 v 43.75049 h -13.125 c 0,0 0.56893,-5.89034 0,-8.75098 -0.8709,-4.37899 -1.967,-9.21794 -5.12402,-12.375 -3.15606,-3.15606 -7.73152,-5.12278 -12.37061,-5.12402 h -74.37451 v -35.00098 h 100.62012 c 4.64056,0 9.0938,-1.84286 12.375,-5.12402 3.28116,-3.2812 5.12402,-7.73444 5.12402,-12.375 v -17.50049 l -0.80859,-23.47998 c -0.006,-0.29354 -0.0767,-0.48729 -0.12598,-0.71338 l 0.0967,0.0967 c -0.8709,-4.37899 -1.967,-9.21796 -5.12402,-12.375 -3.01512,-3.01512 -7.32561,-4.943431 -11.74952,-5.110842 -0.0301,-6.13e-4 -0.0502,-0.0175 -0.0806,-0.01758 -6.04578,-0.01515 -14.76723,0.04069 -22.50147,-0.839356 C 458.09848,98.817332 465.88422,82.071567 456.05127,62.90918 442.89931,36.725284 420.15328,16.62923 392.54736,6.8012695 378.74644,1.8891891 364.26214,-0.26562034 349.88672,0.30615234 Z m 4.66553,34.68749966 c 13.59617,0 27.193,3.516833 39.37646,10.549805 24.11667,19.194241 36.43811,30.432302 36.479,55.584963 0.0139,4.62156 1.85526,9.05351 5.12403,12.32226 3.2812,3.28119 9.6094,6.23145 14.25,6.23145 l 33.12597,0.75 c -0.0323,2.60832 0.23273,7.07268 0.34717,9.9375 l 0.17139,9.28271 -107.1709,0.33985 c -4.64055,0.0118 -9.0938,1.84429 -12.375,5.12549 -3.2812,3.28116 -5.12402,7.7344 -5.12402,12.375 v 52.5 h -17.50049 v -52.5 c 0,-4.6406 -1.84429,-9.09384 -5.12549,-12.375 -3.2812,-3.2812 -7.7344,-5.12549 -12.375,-5.12549 H 223.13672 l -0.30976,-10.8591 c -0.49488,-6.38148 -0.19402,-4.74373 -0.30976,-8.86526 15.46796,0.0856 26.30275,-0.746 40.98439,-0.78081 12.79919,-0.38135 8.29052,-4.33395 10.76849,-8.33319 l 1.87439,-9.68038 c 5.34798,-27.619905 14.66732,-41.864049 39.0342,-55.929993 12.18146,-7.032972 25.77733,-10.549805 39.37354,-10.549805 z M 581.04932,179.42725 c 5.30856,0 10.09351,3.19965 12.12451,8.10205 2.0312,4.90616 0.91066,10.55166 -2.84326,14.30566 -3.75396,3.754 -9.39907,4.87446 -14.30567,2.84326 -4.90226,-2.0312 -8.10058,-6.81591 -8.10058,-12.12451 0,-7.24996 5.875,-13.125 13.125,-13.125 z m -463.10157,0.17578 c 0.47844,-0.007 0.95784,0.0129 1.43702,0.0586 1.2778,0.12189 2.54971,0.43263 3.77636,0.94043 4.90227,2.0312 8.10205,6.81595 8.10205,12.12451 0,7.25 -5.87503,13.125 -13.125,13.125 v 10e-4 c -5.30859,0 -10.09498,-3.19969 -12.12597,-8.10205 -2.03117,-4.9062 -0.90922,-10.55167 2.84472,-14.30567 2.46354,-2.46353 5.74179,-3.79344 9.09082,-3.84228 z m 131.42871,65.39209 h 201.25049 v 52.5 H 249.37646 Z m 0,87.49951 h 201.25049 v 52.5 H 249.37646 Z m 332.50049,65.62793 c 5.3086,0 10.09498,3.19822 12.12598,8.10058 2.0312,4.9062 0.90923,10.55167 -2.84473,14.30567 -3.75392,3.75396 -9.3976,4.87446 -14.3042,2.84326 -4.90226,-2.0312 -8.10205,-6.81595 -8.10205,-12.12451 0,-7.24996 5.87504,-13.125 13.125,-13.125 z m -462.50244,0.0586 c 1.27781,0.12189 2.54972,0.43263 3.77637,0.94043 4.90226,2.0312 8.10205,6.81595 8.10205,12.12451 0,7.25 -5.87504,13.125 -13.125,13.125 v 10e-4 c -5.3086,0 -10.09498,-3.19969 -12.12598,-8.10205 -2.03116,-4.9062 -0.90923,-10.55167 2.84473,-14.30567 2.81547,-2.81546 6.69443,-4.14935 10.52783,-3.78369 z m 375.00293,100.56153 c 5.3086,0 10.09355,3.19822 12.12451,8.10058 2.0312,4.9062 0.9107,10.55167 -2.84326,14.30567 -3.75392,3.75396 -9.3991,4.87446 -14.30566,2.84326 -4.9023,-2.0312 -8.10059,-6.81595 -8.10059,-12.12451 0,-7.25 5.87504,-13.125 13.125,-13.125 z m -287.50342,0.0586 c 1.27781,0.12189 2.55119,0.43263 3.77784,0.94043 4.90226,2.0312 8.10058,6.81595 8.10058,12.12451 0,7.24996 -5.87504,13.125 -13.125,13.125 v 10e-4 c -5.30856,0 -10.09351,-3.19969 -12.12451,-8.10205 -2.0312,-4.9062 -0.91066,-10.55167 2.84326,-14.30567 2.81547,-2.8155 6.69443,-4.14935 10.52783,-3.78369 z"/>
    <path
   d="m 280,288.75 h 61.25 c 6.2539,0 12.031,-3.3359 15.156,-8.75 3.125,-5.4141 3.125,-12.086 0,-17.5 -3.125,-5.414 -8.9023,-8.75 -15.156,-8.75 H 280 c -6.2539,0 -12.031,3.3359 -15.156,8.75 -3.125,5.4141 -3.125,12.086 0,17.5 3.125,5.414 8.9023,8.75 15.156,8.75 z"
   id="path51"
   style="fill:#00ff00" />
    <path
   d="m 280,376.25 h 61.25 c 6.2539,0 12.031,-3.3359 15.156,-8.75 3.125,-5.4141 3.125,-12.086 0,-17.5 -3.125,-5.414 -8.9023,-8.75 -15.156,-8.75 H 280 c -6.2539,0 -12.031,3.3359 -15.156,8.75 -3.125,5.4141 -3.125,12.086 0,17.5 3.125,5.414 8.9023,8.75 15.156,8.75 z"
   id="path53"
   style="fill:#0000ff" />
    <path
   d="m 446.25,271.25 c 0,9.6641 -7.8359,17.5 -17.5,17.5 -9.6641,0 -17.5,-7.8359 -17.5,-17.5 0,-9.6641 7.8359,-17.5 17.5,-17.5 9.6641,0 17.5,7.8359 17.5,17.5"
   id="path55"
   style="fill:#0000ff" />
    <path
   d="m 446.25,358.75 c 0,9.6641 -7.8359,17.5 -17.5,17.5 -9.6641,0 -17.5,-7.8359 -17.5,-17.5 0,-9.6641 7.8359,-17.5 17.5,-17.5 9.6641,0 17.5,7.8359 17.5,17.5"
   id="path57"
   style="fill:#ff0000" />
    <path
   d="m 402.5,271.25 c 0,9.6641 -7.8359,17.5 -17.5,17.5 -9.6641,0 -17.5,-7.8359 -17.5,-17.5 0,-9.6641 7.8359,-17.5 17.5,-17.5 9.6641,0 17.5,7.8359 17.5,17.5"
   id="path59"
   style="fill:#ff0000" />
    <path
   d="m 402.5,358.75 c 0,9.6641 -7.8359,17.5 -17.5,17.5 -9.6641,0 -17.5,-7.8359 -17.5,-17.5 0,-9.6641 7.8359,-17.5 17.5,-17.5 9.6641,0 17.5,7.8359 17.5,17.5"
   id="path61"
   style="fill:#00ff00" />
  </g>
</svg>
